# Tiled2Unity generated file. Do not modify by hand.
# Wavefront file for 'escenario1_mesh_0011.obj'

# Vertices (Count = 84)
v -11 -9 0
v -12 -9 0
v -12 -8 0
v -11 -8 0
v -11 -10 0
v -12 -10 0
v -12 -9 0
v -11 -9 0
v -11 -11 0
v -12 -11 0
v -12 -10 0
v -11 -10 0
v -17 -14 0
v -18 -14 0
v -18 -13 0
v -17 -13 0
v -18 -14 0
v -19 -14 0
v -19 -13 0
v -18 -13 0
v -19 -14 0
v -20 -14 0
v -20 -13 0
v -19 -13 0
v -17 -15 0
v -18 -15 0
v -18 -14 0
v -17 -14 0
v -18 -15 0
v -19 -15 0
v -19 -14 0
v -18 -14 0
v -19 -15 0
v -20 -15 0
v -20 -14 0
v -19 -14 0
v -17 -16 0
v -18 -16 0
v -18 -15 0
v -17 -15 0
v -18 -16 0
v -19 -16 0
v -19 -15 0
v -18 -15 0
v -19 -16 0
v -20 -16 0
v -20 -15 0
v -19 -15 0
v -17 -17 0
v -18 -17 0
v -18 -16 0
v -17 -16 0
v -18 -17 0
v -19 -17 0
v -19 -16 0
v -18 -16 0
v -19 -17 0
v -20 -17 0
v -20 -16 0
v -19 -16 0
v -17 -18 0
v -18 -18 0
v -18 -17 0
v -17 -17 0
v -18 -18 0
v -19 -18 0
v -19 -17 0
v -18 -17 0
v -19 -18 0
v -20 -18 0
v -20 -17 0
v -19 -17 0
v -17 -19 0
v -18 -19 0
v -18 -18 0
v -17 -18 0
v -18 -19 0
v -19 -19 0
v -19 -18 0
v -18 -18 0
v -19 -19 0
v -20 -19 0
v -20 -18 0
v -19 -18 0

# Texture cooridinates (Count = 84)
vt 0.2285156 0.3839286
vt 0.2695313 0.3839286
vt 0.2695313 0.4151786
vt 0.2285156 0.4151786
vt 0.2285156 0.3497024
vt 0.2695313 0.3497024
vt 0.2695313 0.3809524
vt 0.2285156 0.3809524
vt 0.2285156 0.3154762
vt 0.2695313 0.3154762
vt 0.2695313 0.3467262
vt 0.2285156 0.3467262
vt 0.00390625 0.5892857
vt 0.04492188 0.5892857
vt 0.04492188 0.6205357
vt 0.00390625 0.6205357
vt 0.04882813 0.5892857
vt 0.08984375 0.5892857
vt 0.08984375 0.6205357
vt 0.04882813 0.6205357
vt 0.09375 0.5892857
vt 0.1347656 0.5892857
vt 0.1347656 0.6205357
vt 0.09375 0.6205357
vt 0.00390625 0.5550596
vt 0.04492188 0.5550596
vt 0.04492188 0.5863096
vt 0.00390625 0.5863096
vt 0.04882813 0.5550596
vt 0.08984375 0.5550596
vt 0.08984375 0.5863096
vt 0.04882813 0.5863096
vt 0.09375 0.5550596
vt 0.1347656 0.5550596
vt 0.1347656 0.5863096
vt 0.09375 0.5863096
vt 0.00390625 0.5208334
vt 0.04492188 0.5208334
vt 0.04492188 0.5520834
vt 0.00390625 0.5520834
vt 0.04882813 0.5208334
vt 0.08984375 0.5208334
vt 0.08984375 0.5520834
vt 0.04882813 0.5520834
vt 0.09375 0.5208334
vt 0.1347656 0.5208334
vt 0.1347656 0.5520834
vt 0.09375 0.5520834
vt 0.00390625 0.4866071
vt 0.04492188 0.4866071
vt 0.04492188 0.5178571
vt 0.00390625 0.5178571
vt 0.04882813 0.4866071
vt 0.08984375 0.4866071
vt 0.08984375 0.5178571
vt 0.04882813 0.5178571
vt 0.09375 0.4866071
vt 0.1347656 0.4866071
vt 0.1347656 0.5178571
vt 0.09375 0.5178571
vt 0.00390625 0.452381
vt 0.04492188 0.452381
vt 0.04492188 0.483631
vt 0.00390625 0.483631
vt 0.04882813 0.452381
vt 0.08984375 0.452381
vt 0.08984375 0.483631
vt 0.04882813 0.483631
vt 0.09375 0.452381
vt 0.1347656 0.452381
vt 0.1347656 0.483631
vt 0.09375 0.483631
vt 0.00390625 0.4181548
vt 0.04492188 0.4181548
vt 0.04492188 0.4494048
vt 0.00390625 0.4494048
vt 0.04882813 0.4181548
vt 0.08984375 0.4181548
vt 0.08984375 0.4494048
vt 0.04882813 0.4494048
vt 0.09375 0.4181548
vt 0.1347656 0.4181548
vt 0.1347656 0.4494048
vt 0.09375 0.4494048

# Normal
vn 0 0 -1

# Mesh description
g escenario1_mesh_0011

# Faces
f 1/1/1 2/2/1 3/3/1 4/4/1
f 5/5/1 6/6/1 7/7/1 8/8/1
f 9/9/1 10/10/1 11/11/1 12/12/1
f 13/13/1 14/14/1 15/15/1 16/16/1
f 17/17/1 18/18/1 19/19/1 20/20/1
f 21/21/1 22/22/1 23/23/1 24/24/1
f 25/25/1 26/26/1 27/27/1 28/28/1
f 29/29/1 30/30/1 31/31/1 32/32/1
f 33/33/1 34/34/1 35/35/1 36/36/1
f 37/37/1 38/38/1 39/39/1 40/40/1
f 41/41/1 42/42/1 43/43/1 44/44/1
f 45/45/1 46/46/1 47/47/1 48/48/1
f 49/49/1 50/50/1 51/51/1 52/52/1
f 53/53/1 54/54/1 55/55/1 56/56/1
f 57/57/1 58/58/1 59/59/1 60/60/1
f 61/61/1 62/62/1 63/63/1 64/64/1
f 65/65/1 66/66/1 67/67/1 68/68/1
f 69/69/1 70/70/1 71/71/1 72/72/1
f 73/73/1 74/74/1 75/75/1 76/76/1
f 77/77/1 78/78/1 79/79/1 80/80/1
f 81/81/1 82/82/1 83/83/1 84/84/1

